<?xml version="1.0" standalone="no"?>
<!DOCTYPE svg PUBLIC "-//W3C//DTD SVG 20010904//EN"
 "http://www.w3.org/TR/2001/REC-SVG-20010904/DTD/svg10.dtd">
<svg version="1.0" xmlns="http://www.w3.org/2000/svg"
 width="960.000000pt" height="960.000000pt" viewBox="0 0 960.000000 960.000000"
 preserveAspectRatio="xMidYMid meet">
<metadata>
Created by potrace 1.11, written by Peter Selinger 2001-2013
</metadata>
<g transform="translate(0.000000,960.000000) scale(0.100000,-0.100000)"
fill="#000000" stroke="none">
<path d="M0 6115 l0 -3475 160 0 160 0 0 74 c0 68 2 74 23 80 12 3 156 6 319
6 210 0 299 3 304 11 4 7 6 40 5 74 l-2 62 268 7 c147 4 330 4 406 0 l137 -7
0 85 c0 60 4 87 12 89 7 2 78 2 158 -1 l145 -5 3 -80 3 -80 -56 3 c-31 2 -67
1 -81 -2 l-26 -7 6 -92 c3 -51 5 -156 6 -234 l0 -142 78 -3 77 -3 3 -83 3 -82
74 0 75 0 0 63 c1 90 11 251 16 256 3 3 34 6 71 7 39 2 69 8 74 15 4 7 8 75 8
152 1 77 4 144 7 148 7 12 141 11 149 -1 3 -5 6 -80 6 -165 l-1 -155 154 0
154 0 4 -49 3 -49 -112 -7 c-62 -4 -128 -4 -148 -1 -24 5 -35 3 -35 -5 0 -9
33 -11 133 -7 132 6 162 3 152 -12 -7 -12 45 -22 102 -20 73 3 95 1 90 -7 -7
-11 136 -3 148 8 5 5 17 9 27 9 10 0 18 5 18 10 0 13 77 13 83 0 3 -6 4 -5 3
2 -3 13 -73 18 -106 8 -11 -4 -15 8 -18 57 -3 52 0 63 12 63 12 0 16 -12 18
-47 1 -45 2 -46 5 -10 l4 38 47 -2 c26 -2 50 -8 54 -13 4 -6 8 35 8 91 l0 102
-81 3 -81 3 -2 320 -1 320 -75 2 -75 1 -3 166 -2 165 -78 3 -77 3 -3 54 c-5
95 -4 97 81 95 l74 -2 8 151 c3 84 11 159 16 167 10 17 12 9 9 -43 -1 -21 4
-45 10 -53 13 -14 100 -21 100 -6 0 4 -21 7 -47 7 l-48 0 0 45 0 45 52 5 c60
6 63 3 63 -71 0 -31 -4 -49 -12 -49 -7 0 -5 -5 5 -13 12 -9 17 -31 19 -92 l3
-80 78 -3 77 -3 0 -79 0 -80 80 0 80 0 0 -80 0 -79 78 -3 77 -3 5 -80 5 -80
76 -3 77 -3 7 -154 7 -155 159 0 159 0 0 -250 0 -250 160 0 159 0 3 -77 3 -78
78 -3 77 -3 1 -47 c1 -26 2 -58 2 -72 l2 -25 157 -9 157 -9 3 -76 3 -76 78 -3
c69 -3 81 0 97 18 20 23 85 28 93 8 3 -7 5 3 5 22 0 19 -2 29 -5 23 -2 -8 -22
-13 -44 -13 -39 0 -39 0 -39 41 0 24 -4 38 -10 34 -12 -8 -12 171 0 200 5 11
9 14 9 7 1 -10 14 -13 51 -10 29 2 50 -1 51 -7 0 -5 4 -1 9 10 l9 20 2 -20 c2
-11 5 18 8 65 l6 85 85 0 85 0 3 -83 3 -83 60 2 c32 1 62 -1 65 -4 4 -3 13 1
21 9 8 8 18 12 21 10 4 -2 112 -7 240 -11 l232 -7 0 81 0 81 145 1 c80 1 151
2 158 3 11 1 27 121 19 146 -2 6 -150 10 -407 10 l-404 0 -3 83 -3 82 -140 2
c-194 4 -183 -1 -184 82 -1 80 0 81 112 81 l67 0 0 79 c0 44 -4 83 -10 86 -5
3 -10 37 -10 75 l0 68 -132 7 c-73 4 -142 6 -153 5 -11 -1 -24 -1 -30 0 -5 1
-43 2 -82 2 l-73 0 0 79 0 79 -244 0 c-279 0 -256 -9 -256 100 l0 68 -62 1
c-35 0 -105 0 -155 0 l-93 1 0 88 0 89 55 -5 c46 -4 55 -2 55 12 0 12 -10 16
-44 16 -49 0 -56 8 -56 71 l0 39 53 -2 52 -2 -47 -3 -48 -4 0 -40 0 -39 44 0
c25 0 48 -5 51 -10 5 -8 11 -7 21 1 11 9 14 8 14 -5 0 -9 -7 -16 -15 -16 -24
0 -17 -14 13 -27 21 -9 116 -10 412 -3 212 5 429 10 483 10 l97 0 0 149 c0
143 -1 150 -21 156 -11 4 -83 4 -160 0 -107 -6 -142 -5 -154 5 -9 8 -44 14
-83 14 l-67 1 -5 70 -5 70 -81 3 c-94 3 -94 3 -94 105 l0 57 98 2 c53 1 126 2
162 2 36 -1 176 -2 311 -3 l247 -1 7 -155 7 -155 44 -2 c24 -1 56 -2 72 -2
l27 -1 5 160 5 160 80 0 80 0 0 -160 0 -160 54 -3 c97 -6 100 -3 103 86 l3 77
83 3 84 3 -2 -158 c-1 -87 -1 -164 -1 -170 1 -16 142 -18 157 -3 5 5 43 10 84
12 l75 3 0 78 -1 77 58 1 c32 1 68 2 81 2 21 1 22 -3 25 -81 3 -93 12 -85 -95
-82 l-63 1 0 -85 0 -86 85 0 85 0 0 -160 0 -160 80 0 80 0 0 -160 0 -160 80 0
80 0 0 -80 0 -80 148 0 c183 0 185 -1 180 -90 l-3 -65 160 -10 160 -10 3 -77
3 -78 162 -2 162 -3 3 -62 c2 -41 7 -63 15 -63 7 0 6 -4 -3 -10 -10 -7 35 -10
138 -9 83 1 153 5 153 10 6 30 1 34 -46 40 l-50 6 52 1 52 2 3 42 3 43 77 0
78 0 0 78 0 77 81 0 81 0 -4 -127 -3 -128 -51 3 c-50 4 -52 3 -50 -22 1 -24 4
-26 52 -26 28 0 54 -3 57 -7 8 -7 126 -6 240 3 l77 7 0 68 0 69 -75 0 c-85 0
-82 -4 -87 105 l-3 60 40 -2 c22 0 61 -2 87 -2 l47 -1 3 -72 3 -73 155 2 155
2 -3 70 -3 70 33 6 c18 3 93 5 165 3 92 -2 134 0 137 8 14 37 16 101 4 125
-12 23 -19 26 -83 28 -38 1 -73 5 -77 7 -4 3 -8 36 -8 75 l0 69 -160 0 -159 0
-3 88 -3 87 -55 2 c-30 1 -67 2 -82 2 -28 1 -28 1 -28 76 l0 75 -160 0 -159 0
-3 -72 -3 -73 -71 -3 -71 -3 -7 120 c-8 145 2 338 18 344 7 3 40 4 74 3 52 -1
62 2 66 18 3 13 10 17 22 12 16 -6 17 -5 3 11 -9 10 -17 41 -18 71 l-2 52 75
0 c44 0 78 5 82 11 5 8 51 9 159 4 137 -6 259 -21 198 -24 -21 -1 -23 -6 -23
-66 l0 -66 71 3 72 3 1 70 1 70 163 9 162 9 0 36 c0 46 19 114 34 123 16 11
16 2156 -1 2166 -26 16 -47 202 -23 202 6 0 10 13 10 29 0 16 6 31 13 33 9 4
13 305 15 1451 l3 1447 -4796 0 -4795 0 0 -3475z m5018 3240 c10 -256 19 -404
20 -367 l2 42 40 0 c38 0 40 -2 40 -30 0 -23 4 -30 20 -30 22 0 22 2 21 70 -1
25 2 50 6 56 5 7 37 13 73 15 36 2 68 8 72 14 5 6 8 4 10 -5 1 -8 4 21 7 65
l6 80 242 3 242 2 3 -77 3 -78 83 -3 82 -3 0 -79 0 -80 80 0 80 0 0 -80 0 -80
80 0 79 0 3 -82 3 -83 78 -3 77 -3 0 -159 0 -160 80 0 80 0 2 -242 3 -243 78
-3 77 -3 0 -319 0 -320 58 -1 c31 -1 67 0 78 0 21 2 22 -3 29 -153 4 -85 4
-159 0 -165 -3 -6 -39 -11 -81 -11 l-74 0 0 -75 0 -74 78 -3 77 -3 0 -85 0
-84 -75 -4 c-41 -2 -76 -5 -77 -6 -1 -1 -5 -70 -9 -154 l-7 -152 47 -1 c25 -1
55 -3 66 -4 11 -1 29 -3 40 -4 19 -1 20 -8 20 -241 l0 -240 -80 0 -80 0 -1
-247 c-1 -137 -2 -391 -3 -565 l-1 -318 -82 0 -83 0 0 468 c0 257 -4 472 -8
478 -4 7 -67 15 -162 20 l-154 9 -1 155 0 154 -25 6 c-14 3 -25 10 -25 15 -4
67 -22 111 -80 199 -36 54 -65 105 -65 113 0 8 -11 29 -25 47 -33 41 -37 46
-58 78 -15 25 -16 28 -1 36 15 8 14 14 -10 48 -32 48 -32 57 0 83 19 15 41 21
75 21 l49 0 0 -74 c0 -42 5 -78 11 -81 6 -4 80 -4 165 0 l154 7 0 153 0 152
-150 8 c-82 4 -152 10 -155 15 -3 4 2 24 10 44 22 52 26 96 9 103 -8 3 -23 25
-33 49 -13 29 -27 45 -43 48 -73 16 -99 10 -152 -39 -27 -25 -61 -48 -77 -53
-16 -4 -82 -4 -146 -1 -107 6 -118 9 -136 30 -10 13 -32 39 -48 56 -16 18 -29
37 -29 43 0 5 -7 10 -15 10 -11 0 -15 12 -15 47 0 25 -3 44 -6 40 -4 -3 -20 7
-36 23 -16 17 -34 30 -40 30 -6 0 -17 8 -24 18 -10 14 -31 18 -107 20 l-95 4
-7 -85 c-4 -47 -6 -118 -4 -159 l4 -73 -77 -3 -78 -3 0 -79 0 -80 -85 0 -85 0
0 80 0 80 -80 0 -79 0 -3 78 -3 77 -77 3 -78 3 0 80 0 79 -241 -2 -241 -3 -2
-68 c-1 -81 -3 -80 127 -76 51 1 116 2 145 1 52 -2 52 -2 52 -34 0 -40 -2 -43
-65 -93 -49 -40 -50 -40 -155 -45 -103 -5 -105 -5 -108 -30 -6 -51 -11 -53
-44 -17 -23 24 -46 37 -75 42 -27 4 -67 24 -110 56 -93 67 -93 67 -93 94 0 24
3 25 63 26 34 1 69 2 77 3 12 1 16 18 18 74 l3 72 -86 0 c-69 0 -85 -3 -85
-15 0 -17 -16 -20 -25 -5 -3 6 -33 10 -65 10 l-59 0 -3 87 -3 88 -80 -3 c-44
-2 -82 -5 -84 -7 -2 -2 0 -72 4 -154 l7 -151 53 0 c30 0 66 -5 81 -10 24 -10
25 -12 12 -28 -23 -26 -48 -78 -48 -101 0 -11 9 -25 20 -31 11 -6 20 -19 20
-29 0 -28 54 -102 120 -164 51 -49 60 -62 60 -92 l0 -36 -82 3 -83 3 0 75 0
75 -70 -3 c-39 -2 -73 -9 -78 -15 -4 -7 -6 -40 -5 -74 1 -34 -1 -65 -4 -69 -4
-3 -76 -3 -162 1 l-154 7 -7 117 c-4 64 -12 161 -20 216 l-13 100 -1 -82 -1
-83 -39 0 -38 0 -10 78 c-7 48 -10 58 -8 27 2 -46 -11 -120 -15 -85 -1 8 -3
31 -5 50 -2 19 -6 95 -7 167 l-3 133 -76 0 c-53 0 -78 4 -82 13 -8 20 -8 471
1 482 4 6 39 10 77 10 l70 0 3 145 c1 80 4 151 7 158 3 8 28 12 79 12 l74 0 7
154 c8 175 1 163 101 158 l64 -4 0 -68 0 -69 148 -3 c81 -2 152 -2 158 0 7 2
13 79 17 229 4 124 8 227 9 229 2 1 73 6 158 10 85 4 190 9 233 12 l77 4 0
-89 0 -88 -157 0 -158 0 0 -75 0 -75 160 0 160 0 5 74 5 73 145 4 c80 3 151 7
158 9 8 3 12 28 12 79 l0 75 -77 3 -78 3 -3 65 c-1 36 2 92 7 125 8 56 9 57
10 18 l1 -43 65 0 65 0 0 70 0 70 -57 1 c-32 0 -67 3 -78 5 -11 3 -56 5 -100
5 l-80 1 -5 -79 -5 -78 -72 -3 -73 -3 0 86 0 85 58 2 c31 0 65 1 75 0 15 -2
17 8 17 76 l0 77 -155 3 c-154 3 -155 3 -164 -20 -5 -13 -7 -39 -5 -58 6 -72
0 -78 -79 -80 -268 -7 -355 -10 -375 -15 -22 -6 -23 -9 -20 -80 2 -41 0 -75
-4 -76 -5 -1 -43 -1 -85 -2 l-78 -1 0 85 0 84 77 3 77 3 3 77 3 77 163 3 162
2 0 81 0 80 234 -2 c129 0 239 2 245 6 6 3 11 39 11 81 l0 74 483 -2 482 -3 3
-70z m142 -105 c10 -7 -7 -9 -55 -8 -69 1 -70 1 -20 8 28 4 52 7 55 8 3 1 12
-3 20 -8z m10 -30 c0 -6 -28 -10 -65 -10 -37 0 -65 4 -65 10 0 6 28 10 65 10
37 0 65 -4 65 -10z m3 -27 c-8 -2 -13 -22 -13 -44 l0 -39 -60 0 -60 0 0 45 0
45 73 -1 c39 0 66 -3 60 -6z m-836 -318 c4 -4 0 -5 -10 -2 -10 4 -39 7 -63 7
-24 0 -44 4 -44 8 0 10 107 -1 117 -13z m-1259 -412 l2 -163 -87 -2 c-49 -1
-122 -2 -163 -2 l-75 -1 -3 70 c-1 39 2 97 7 130 8 56 9 57 10 18 l1 -43 65 0
65 0 0 68 c0 41 5 73 12 80 9 9 38 12 88 10 l75 -3 3 -162z m-328 -403 l0 -80
-80 0 -80 0 0 73 c0 41 3 77 7 80 3 4 39 7 80 7 l73 0 0 -80z m-280 -759 c0
-13 9 -15 48 -11 l47 4 -45 7 -45 6 51 1 51 2 2 -65 1 -65 -54 0 c-83 0 -86 3
-86 74 0 49 3 63 15 63 8 0 15 -7 15 -16z m1210 -171 c0 -5 -15 -10 -32 -10
-18 0 -42 -2 -53 -4 -11 -2 -14 -1 -7 1 6 3 12 9 12 14 0 5 18 9 40 9 22 0 40
-4 40 -10z m24 -25 c-4 -8 -8 -15 -10 -15 -2 0 -4 7 -4 15 0 8 4 15 10 15 5 0
7 -7 4 -15z m-1124 -185 l0 -80 -69 0 c-54 0 -70 4 -75 16 -8 21 -8 129 1 137
3 4 37 7 75 7 l68 0 0 -80z m1950 -205 c0 -35 -10 -42 -44 -29 -13 5 -12 10 6
35 28 38 38 37 38 -6z m-1513 -12 c-20 -2 -52 -2 -70 0 -17 2 0 4 38 4 39 0
53 -2 32 -4z m-538 -55 c1 21 5 23 49 20 l47 -3 3 -67 3 -68 -51 0 c-33 0 -50
4 -51 13 0 10 -2 10 -6 0 -2 -7 -11 -13 -19 -13 -19 0 -20 136 -1 143 7 2 15
-7 18 -22 6 -24 7 -25 8 -3z m2209 -45 l-3 -78 -72 -2 -72 -1 -7 34 c-7 41 3
106 19 116 7 4 40 8 75 8 l63 0 -3 -77z m-1801 45 c-3 -8 -6 -5 -6 6 -1 11 2
17 5 13 3 -3 4 -12 1 -19z m-110 -70 c-2 -18 -4 -6 -4 27 0 33 2 48 4 33 2
-15 2 -42 0 -60z m6651 8 l-1 -41 -4 43 c-2 23 -8 42 -14 42 -5 0 -10 -19 -10
-42 -1 -26 -4 -34 -6 -19 -3 13 -2 40 2 60 6 34 8 35 21 16 8 -10 13 -37 12
-59z m101 37 c-1 -17 -3 -21 -6 -10 -3 12 -16 17 -46 19 l-42 1 45 7 c25 4 46
8 48 8 1 1 1 -10 1 -25z m-6629 -38 c0 -25 -3 -45 -8 -45 -4 0 -6 20 -4 45 2
25 6 45 8 45 2 0 4 -20 4 -45z m0 -69 c54 4 114 4 134 0 l36 -7 0 -74 0 -75
-75 0 c-64 0 -75 -2 -76 -17 -2 -40 -5 -137 -7 -295 l-2 -168 -73 0 -74 0 -6
208 c-5 195 -2 378 9 430 4 21 6 21 20 7 14 -13 32 -15 114 -9z m2278 -73 l3
-83 81 0 81 0 -6 -47 c-3 -27 -15 -68 -26 -93 -27 -59 -26 -94 4 -145 29 -50
54 -59 131 -49 l54 6 2 -103 c3 -110 5 -186 7 -206 1 -8 27 -13 78 -15 l77 -3
0 -75 1 -75 160 -5 160 -5 3 -77 3 -78 74 0 c43 0 77 -5 81 -11 3 -6 2 -77 -2
-157 -7 -109 -10 -129 -12 -79 l-3 67 -64 0 c-35 0 -67 -4 -70 -10 -4 -6 12
-10 39 -10 l46 0 2 -42 1 -43 4 43 c5 54 23 55 23 1 0 -51 -16 -67 -71 -71
l-44 -3 -5 -85 -5 -85 -77 -3 -78 -3 0 75 c0 41 -5 78 -10 81 -6 3 -151 7
-323 9 l-312 2 0 75 0 74 70 0 c39 0 73 5 77 10 4 6 8 45 8 87 l0 77 78 3 77
3 0 74 0 75 -305 2 c-168 2 -311 4 -317 5 -9 2 -13 25 -13 76 l0 73 -90 0
c-65 0 -90 -3 -91 -12 0 -7 0 -39 -1 -70 l0 -58 -68 0 -68 0 -7 134 c-4 74 -4
144 0 155 6 19 14 21 81 21 l74 0 -1 168 c0 92 -4 193 -8 224 -4 31 -3 54 1
52 4 -3 8 42 8 100 l0 106 168 3 c92 1 201 3 242 2 l75 0 3 -82z m-2590 -165
l3 -78 -81 0 -80 0 0 73 c0 41 3 77 7 81 4 4 39 5 78 4 l70 -3 3 -77z m3168
-93 c11 -3 35 -26 52 -52 17 -27 39 -58 48 -70 16 -22 15 -23 -10 -32 -22 -9
-24 -13 -16 -38 6 -15 23 -42 38 -58 45 -48 34 -55 -88 -55 l-108 0 -6 83 c-6
94 -7 218 -1 227 4 6 46 4 91 -5z m-2205 -70 c-2 -38 -8 -73 -13 -76 -15 -9
-19 -137 -5 -146 16 -10 -27 -21 -85 -22 l-48 -1 0 80 0 80 -80 0 -80 0 0 80
0 81 158 -3 157 -3 -4 -70z m486 -52 l-2 -28 80 -3 c65 -2 82 0 92 14 11 15
16 14 62 -6 60 -28 92 -69 99 -126 l5 -43 -84 -3 -84 -3 -5 -155 -5 -155 -155
0 -155 0 -3 78 -3 77 -79 0 c-76 0 -80 1 -80 23 0 43 12 66 39 75 15 5 34 16
42 23 8 8 30 22 50 31 34 15 37 20 41 69 5 43 11 58 37 81 17 15 42 28 54 28
15 0 29 9 37 25 17 32 19 31 17 -2z m-487 -434 l0 -69 -68 0 c-38 0 -71 2 -73
4 -2 2 -3 35 -1 73 l3 68 70 -3 69 -4 0 -69z m-599 52 c9 14 9 9 -6 -85 -8
-48 -25 -31 -25 26 0 42 11 79 18 59 4 -11 6 -11 13 0z m119 -95 c0 -3 -4 -8
-10 -11 -5 -3 -10 -1 -10 4 0 6 5 11 10 11 6 0 10 -2 10 -4z m165 -59 c4 -13
5 -48 3 -78 l-3 -54 -80 0 -80 0 -3 64 c-2 35 -1 70 2 77 4 10 27 14 80 14 71
0 76 -1 81 -23z m1136 -74 c1 -49 2 -117 2 -153 l2 -65 78 -3 77 -3 0 -84 0
-85 -80 0 -80 0 0 -80 0 -79 -82 -3 -83 -3 -3 -71 c-3 -64 -5 -73 -25 -78 -12
-3 -117 -6 -234 -6 l-212 0 -3 23 c-2 12 -1 45 0 74 l4 52 76 3 77 3 3 78 3
77 74 0 75 0 1 73 c3 141 8 247 14 256 3 5 38 9 78 9 l72 0 3 76 3 76 79 0 80
0 1 -87z m-1473 -89 c9 -3 12 -22 10 -66 l-3 -62 -70 1 -70 1 -3 57 c-4 83 -3
85 65 79 32 -3 64 -7 71 -10z m172 -545 l0 -399 -81 0 -80 0 5 153 c3 83 6
263 6 399 l0 247 68 3 c37 2 70 2 75 0 4 -2 7 -183 7 -403z m3050 261 c0 -5
-4 -10 -10 -10 -5 0 -10 5 -10 10 0 6 5 10 10 10 6 0 10 -4 10 -10z m-462
-262 l3 -78 -305 0 c-167 0 -311 3 -320 6 -13 5 -16 22 -16 80 l0 74 318 -3
317 -2 3 -77z m-842 46 c4 -14 4 -41 1 -60 -4 -25 -2 -34 9 -34 8 0 14 -4 14
-9 0 -6 -9 -9 -20 -8 -11 1 -20 5 -20 9 0 13 -78 9 -83 -4 -3 -7 -5 16 -4 52
0 55 1 57 4 17 l4 -48 42 3 42 3 0 45 0 45 -50 6 -50 6 52 1 c49 2 53 0 59
-24z m1539 16 l-50 -7 63 -1 62 -2 1 -62 c1 -73 15 -46 20 37 2 39 4 30 10
-40 11 -146 11 -212 -3 -217 -7 -3 -44 -3 -81 0 l-68 4 2 72 2 71 -81 3 -82 3
0 74 0 75 128 -2 c93 -1 114 -3 77 -8z m1885 -225 l0 -76 -70 3 -70 2 0 73 0
73 70 0 70 0 0 -75z m-1771 -255 c12 0 -6 -132 -18 -140 -12 -7 -102 -3 -128
5 -9 3 -13 26 -13 69 l0 65 63 4 c34 1 68 2 75 0 8 -2 17 -3 21 -3z m971 -224
c0 -85 3 -83 -96 -78 l-64 4 0 74 0 74 80 0 80 0 0 -74z m648 9 c5 -101 4
-103 -83 -107 l-75 -3 0 88 0 88 78 -3 77 -3 3 -60z m-3731 -111 c-3 -3 -12
-4 -19 -1 -8 3 -5 6 6 6 11 1 17 -2 13 -5z m2726 -1 c-7 -2 -19 -2 -25 0 -7 3
-2 5 12 5 14 0 19 -2 13 -5z m2100 0 c-13 -2 -33 -2 -45 0 -13 2 -3 4 22 4 25
0 35 -2 23 -4z m-1203 -83 c5 0 11 19 13 43 l4 42 1 -40 c2 -49 -13 -78 -28
-55 -5 8 -9 33 -8 55 l1 40 4 -42 c2 -24 8 -43 13 -43z m-897 -7 c-24 -2 -62
-2 -85 0 -24 2 -5 4 42 4 47 0 66 -2 43 -4z m877 -24 c0 -5 -4 -9 -10 -9 -5 0
-10 7 -10 16 0 8 5 12 10 9 6 -3 10 -10 10 -16z m1190 10 c-30 -4 -59 -4 -63
0 -5 5 20 8 55 8 l63 1 -55 -9z m-2030 -19 c0 -6 -33 -10 -80 -10 -47 0 -80 4
-80 10 0 6 33 10 80 10 47 0 80 -4 80 -10z m318 -102 l-3 -73 -73 0 -74 0 -1
73 -2 72 78 0 78 0 -3 -72z m482 2 l0 -70 -75 0 -75 0 0 63 c0 35 2 66 5 69 3
3 37 6 75 7 l70 1 0 -70z m-5012 -327 l3 -73 -76 0 -75 0 0 75 0 76 73 -3 72
-3 3 -72z m-160 -160 l3 -72 -35 -6 c-19 -4 -51 -4 -73 -1 -21 3 -41 5 -45 6
-10 0 -10 134 -1 144 4 4 39 5 78 4 l70 -3 3 -72z m2249 -59 c-3 -3 -12 -4
-19 -1 -8 3 -5 6 6 6 11 1 17 -2 13 -5z m-2580 -32 c18 -11 20 -132 2 -143 -8
-5 -44 -9 -81 -9 l-68 0 0 73 c0 41 2 76 5 79 9 8 129 9 142 0z m625 -44 l1
-43 7 45 7 45 2 -42 c7 -108 14 -98 -67 -101 l-72 -4 0 71 0 71 60 0 60 0 2
-42z m5078 -3 l0 -45 60 0 c33 0 60 -4 60 -10 0 -6 -29 -10 -68 -10 l-69 0 -2
55 c-1 32 3 55 9 55 5 0 10 -20 10 -45z m37 -17 c-2 -13 -4 -3 -4 22 0 25 2
35 4 23 2 -13 2 -33 0 -45z m-32 -68 c3 -5 -1 -10 -10 -10 -9 0 -13 5 -10 10
3 6 8 10 10 10 2 0 7 -4 10 -10z m98 -7 c-13 -2 -35 -2 -50 0 -16 2 -5 4 22 4
28 0 40 -2 28 -4z m507 -87 c0 -36 -4 -67 -8 -70 -4 -2 -35 -6 -67 -8 -33 -1
-63 -6 -66 -11 -4 -5 -7 28 -8 72 l-2 81 76 0 75 0 0 -64z m-6470 -176 l0 -80
-75 0 -75 0 0 80 0 80 75 0 75 0 0 -80z m370 -36 c0 -8 -5 -12 -10 -9 -6 4 -8
11 -5 16 9 14 15 11 15 -7z m480 6 c0 -5 -5 -10 -11 -10 -5 0 -7 5 -4 10 3 6
8 10 11 10 2 0 4 -4 4 -10z m4847 -112 c-2 -13 -4 -3 -4 22 0 25 2 35 4 23 2
-13 2 -33 0 -45z m-4740 0 c-3 -7 -5 -2 -5 12 0 14 2 19 5 13 2 -7 2 -19 0
-25z m4780 -5 c-3 -10 -5 -4 -5 12 0 17 2 24 5 18 2 -7 2 -21 0 -30z m113 -30
c69 -3 127 -7 130 -10 3 -3 -50 -3 -117 1 -99 5 -123 3 -123 -7 0 -8 -7 -14
-15 -14 -11 0 -15 11 -14 41 1 31 3 35 8 18 6 -23 11 -24 131 -29z m-4893 -25
c-3 -8 -6 -5 -6 6 -1 11 2 17 5 13 3 -3 4 -12 1 -19z m5348 2 c4 -6 -12 -10
-39 -10 -25 0 -46 5 -46 10 0 6 18 10 39 10 22 0 43 -4 46 -10z"/>
<path d="M5355 9087 c-2 -7 -8 -79 -12 -162 l-8 -150 -25 -2 c-14 0 -50 -1
-80 -2 l-55 -1 -2 -48 c-5 -94 -14 -89 167 -97 l160 -7 0 -74 0 -74 85 0 85 0
0 70 0 69 73 3 72 3 3 163 2 162 -80 0 -80 0 0 -160 0 -161 -77 3 -78 3 -2
140 c-2 188 -5 180 65 178 92 -3 92 -3 92 83 l0 74 -150 -1 c-109 0 -152 -3
-155 -12z"/>
<path d="M4700 8700 c0 -40 4 -70 10 -70 6 0 10 5 10 10 0 15 77 12 83 -2 3
-7 6 -4 7 7 1 19 1 19 14 2 14 -18 14 -18 20 0 10 35 3 123 -11 123 -7 0 -10
-6 -7 -15 4 -8 1 -15 -5 -15 -6 0 -11 7 -11 15 0 12 -13 15 -55 15 l-55 0 0
-70z m130 16 c0 -3 -4 -8 -10 -11 -5 -3 -10 -1 -10 4 0 6 5 11 10 11 6 0 10
-2 10 -4z"/>
<path d="M4530 8543 l0 -83 80 0 80 0 0 83 0 82 -80 0 -80 0 0 -82z"/>
<path d="M3591 8591 c-8 -5 5 -7 35 -4 27 3 51 7 53 9 9 8 -75 3 -88 -5z"/>
<path d="M6154 8447 c-3 -8 -4 -43 -2 -78 l3 -64 75 0 75 0 0 75 0 75 -73 3
c-55 2 -74 -1 -78 -11z"/>
<path d="M3235 6987 c-3 -12 -4 -85 -3 -162 l3 -140 80 0 80 0 3 120 c1 67 -1
139 -6 160 l-8 40 -72 2 c-66 1 -72 0 -77 -20z"/>
<path d="M2941 6974 c0 -11 3 -14 6 -6 3 7 2 16 -1 19 -3 4 -6 -2 -5 -13z"/>
<path d="M6640 6595 l0 -76 53 2 c98 3 97 2 97 80 l0 69 -75 0 -75 0 0 -75z"/>
<path d="M6318 6147 c-3 -24 -3 -58 0 -75 l4 -33 72 3 71 3 3 73 3 72 -74 0
-74 0 -5 -43z"/>
<path d="M2473 7230 c0 -25 2 -35 4 -22 2 12 2 32 0 45 -2 12 -4 2 -4 -23z"/>
<path d="M2780 6480 c0 -5 5 -10 10 -10 6 0 10 5 10 10 0 6 -4 10 -10 10 -5 0
-10 -4 -10 -10z"/>
<path d="M4559 5577 c5 -5 30 -7 57 -5 l49 3 -57 5 c-31 3 -53 1 -49 -3z"/>
<path d="M2933 5630 c0 -25 2 -35 4 -22 2 12 2 32 0 45 -2 12 -4 2 -4 -23z"/>
<path d="M4021 4934 c0 -11 3 -14 6 -6 3 7 2 16 -1 19 -3 4 -6 -2 -5 -13z"/>
<path d="M2778 5353 c7 -3 16 -2 19 1 4 3 -2 6 -13 5 -11 0 -14 -3 -6 -6z"/>
<path d="M6320 4780 c0 -5 18 -10 40 -10 22 0 40 5 40 10 0 6 -18 10 -40 10
-22 0 -40 -4 -40 -10z"/>
<path d="M3090 4125 c0 -8 4 -15 10 -15 5 0 7 7 4 15 -4 8 -8 15 -10 15 -2 0
-4 -7 -4 -15z"/>
<path d="M8625 3960 c-3 -5 -1 -10 4 -10 6 0 11 5 11 10 0 6 -2 10 -4 10 -3 0
-8 -4 -11 -10z"/>
<path d="M5990 3850 l0 -81 78 3 77 3 0 75 0 75 -77 3 -78 3 0 -81z"/>
<path d="M9390 3851 l0 -69 71 -4 c39 -2 73 -1 75 1 2 2 4 35 4 73 l0 68 -75
0 -75 0 0 -69z"/>
<path d="M8440 3796 c0 -9 5 -16 10 -16 6 0 10 4 10 9 0 6 -4 13 -10 16 -5 3
-10 -1 -10 -9z"/>
<path d="M5830 3685 l0 -75 75 0 75 0 0 75 0 75 -75 0 -75 0 0 -75z"/>
<path d="M6318 3727 c2 -19 -1 -50 -6 -70 l-10 -37 79 0 c75 0 79 1 78 23 0
21 -1 21 -9 2 -8 -19 -9 -19 -9 3 -1 12 4 22 9 22 17 0 12 77 -5 84 -12 4 -15
-6 -15 -61 0 -36 -3 -63 -7 -59 -4 4 -6 33 -5 65 l3 58 -54 2 -53 2 4 -34z"/>
<path d="M5670 3365 l0 -75 65 0 c36 0 68 0 73 0 4 0 7 33 7 73 l0 72 -72 3
-73 3 0 -76z"/>
<path d="M6043 3272 l-53 -3 0 -70 0 -69 75 0 75 0 0 74 c0 70 -1 74 -22 72
-13 0 -47 -2 -75 -4z"/>
<path d="M5824 3106 c-3 -8 -4 -43 -2 -78 l3 -63 78 -3 77 -3 0 81 0 80 -75 0
c-57 0 -77 -4 -81 -14z"/>
<path d="M9552 2845 c0 -16 2 -22 5 -12 2 9 2 23 0 30 -3 6 -5 -1 -5 -18z"/>
<path d="M1620 2820 c0 -5 7 -10 15 -10 8 0 15 5 15 10 0 6 -7 10 -15 10 -8 0
-15 -4 -15 -10z"/>
<path d="M8433 2750 c0 -25 2 -35 4 -22 2 12 2 32 0 45 -2 12 -4 2 -4 -23z"/>
<path d="M9553 2750 c0 -25 2 -35 4 -22 2 12 2 32 0 45 -2 12 -4 2 -4 -23z"/>
<path d="M8420 2690 c0 -5 7 -10 15 -10 8 0 15 5 15 10 0 6 -7 10 -15 10 -8 0
-15 -4 -15 -10z"/>
<path d="M8425 2660 c-3 -5 1 -10 10 -10 9 0 13 5 10 10 -3 6 -8 10 -10 10 -2
0 -7 -4 -10 -10z"/>
<path d="M6893 2590 c0 -25 2 -35 4 -22 2 12 2 32 0 45 -2 12 -4 2 -4 -23z"/>
<path d="M6912 2598 c-1 -20 -5 -43 -8 -52 -4 -11 0 -16 14 -16 23 0 32 18 32
66 0 52 -20 40 -22 -13 l-1 -48 -7 50 c-6 45 -7 46 -8 13z"/>
<path d="M4054 2553 l1 -58 70 -7 c38 -4 71 -5 73 -4 4 4 4 26 0 81 l-3 40
-71 3 -71 3 1 -58z m110 29 c2 -4 -12 -6 -32 -4 -56 5 -62 10 -15 11 23 1 44
-3 47 -7z m-4 -31 c0 -5 6 -11 13 -14 6 -2 3 -3 -8 -1 -11 2 -35 4 -52 4 -18
0 -33 5 -33 10 0 6 18 10 40 10 22 0 40 -4 40 -9z m27 -47 c-3 -3 -12 -4 -19
-1 -8 3 -5 6 6 6 11 1 17 -2 13 -5z"/>
<path d="M3382 2545 c0 -16 2 -22 5 -12 2 9 2 23 0 30 -3 6 -5 -1 -5 -18z"/>
<path d="M2618 2543 c7 -3 16 -2 19 1 4 3 -2 6 -13 5 -11 0 -14 -3 -6 -6z"/>
<path d="M2738 2543 c12 -2 32 -2 45 0 12 2 2 4 -23 4 -25 0 -35 -2 -22 -4z"/>
<path d="M6823 2533 c15 -2 37 -2 50 0 12 2 0 4 -28 4 -27 0 -38 -2 -22 -4z"/>
<path d="M6835 2513 c22 -3 43 -10 47 -16 5 -8 8 -6 8 6 0 14 -8 17 -47 15
-48 -1 -48 -1 -8 -5z"/>
<path d="M6900 2510 c0 -5 5 -10 10 -10 6 0 10 5 10 10 0 6 -4 10 -10 10 -5 0
-10 -4 -10 -10z"/>
<path d="M2758 2493 c23 -2 61 -2 85 0 23 2 4 4 -43 4 -47 0 -66 -2 -42 -4z"/>
<path d="M9553 2460 c0 -25 2 -35 4 -22 2 12 2 32 0 45 -2 12 -4 2 -4 -23z"/>
<path d="M3091 2354 c0 -11 3 -14 6 -6 3 7 2 16 -1 19 -3 4 -6 -2 -5 -13z"/>
<path d="M5308 2309 c-7 -4 -8 -15 -3 -25 7 -17 9 -16 15 6 5 17 8 -3 9 -57 1
-45 6 -85 11 -88 6 -3 10 -14 10 -23 0 -14 8 -17 45 -14 28 3 45 0 45 -7 0 -6
-19 -11 -45 -11 -25 0 -45 -4 -45 -8 0 -4 21 -5 47 -2 34 3 49 10 51 22 3 14
-6 18 -45 21 -44 3 -43 4 15 5 l62 2 2 -67 1 -68 8 90 c4 50 7 120 8 157 l1
67 -91 3 c-50 2 -96 0 -101 -3z"/>
<path d="M5282 2260 c0 -14 2 -19 5 -12 2 6 2 18 0 25 -3 6 -5 1 -5 -13z"/>
<path d="M5300 2235 c0 -15 4 -24 10 -20 6 3 10 12 10 20 0 8 -4 17 -10 20 -6
4 -10 -5 -10 -20z"/>
<path d="M5300 2185 c0 -8 5 -15 10 -15 6 0 10 7 10 15 0 8 -4 15 -10 15 -5 0
-10 -7 -10 -15z"/>
<path d="M1458 2068 l-3 -83 -77 -3 -78 -3 0 -74 0 -75 328 -2 c334 -3 624 0
631 7 5 6 8 128 3 143 -4 11 -52 13 -231 12 -124 -1 -232 -1 -238 -1 -9 1 -13
24 -13 81 l0 80 -160 0 -159 0 -3 -82z"/>
<path d="M5461 2104 c0 -11 3 -14 6 -6 3 7 2 16 -1 19 -3 4 -6 -2 -5 -13z"/>
<path d="M5461 2064 c0 -11 3 -14 6 -6 3 7 2 16 -1 19 -3 4 -6 -2 -5 -13z"/>
<path d="M5398 2062 c-61 -4 -63 -22 -3 -22 26 0 45 -5 45 -11 0 -7 -17 -10
-45 -7 -27 2 -44 -1 -42 -7 2 -5 22 -11 45 -13 44 -3 57 8 50 45 -2 15 -11 17
-50 15z"/>
<path d="M5461 2024 c0 -11 3 -14 6 -6 3 7 2 16 -1 19 -3 4 -6 -2 -5 -13z"/>
<path d="M8421 1898 c-2 -67 -1 -71 13 -53 9 12 15 15 16 7 0 -7 3 -11 8 -9 4
3 31 1 60 -3 l53 -7 -3 66 -3 66 -71 3 -71 3 -2 -73z m117 55 c-16 -2 -40 -2
-55 0 -16 2 -3 4 27 4 30 0 43 -2 28 -4z m-68 -33 c0 -5 -7 -7 -15 -4 -8 4
-15 8 -15 10 0 2 7 4 15 4 8 0 15 -4 15 -10z m73 3 c-13 -2 -33 -2 -45 0 -13
2 -3 4 22 4 25 0 35 -2 23 -4z m-97 -50 c-11 -11 -19 6 -11 24 8 17 8 17 12 0
3 -10 2 -21 -1 -24z m79 4 l40 -4 -47 -1 c-44 -2 -65 7 -51 22 4 3 9 2 12 -3
4 -5 24 -11 46 -14z"/>
<path d="M980 1261 c0 -69 0 -70 28 -73 15 -2 48 -1 74 0 l48 4 -2 69 -2 69
-73 0 -73 0 0 -69z"/>
<path d="M9409 1303 l-1 -28 -8 25 c-6 18 -8 7 -9 -42 l-1 -68 65 0 65 0 1 33
2 32 7 -35 c6 -28 8 -21 9 38 l1 72 -65 0 c-64 0 -65 0 -66 -27z m31 7 c0 -5
-5 -10 -11 -10 -5 0 -7 5 -4 10 3 6 8 10 11 10 2 0 4 -4 4 -10z"/>
<path d="M543 1150 c0 -25 2 -35 4 -22 2 12 2 32 0 45 -2 12 -4 2 -4 -23z"/>
<path d="M1146 1165 c-7 -6 -10 -37 -8 -82 l4 -71 74 -4 74 -3 0 82 0 81 -67
4 c-36 1 -71 -1 -77 -7z"/>
<path d="M523 1070 c0 -25 2 -35 4 -22 2 12 2 32 0 45 -2 12 -4 2 -4 -23z"/>
<path d="M9551 1063 c-1 -18 4 -33 9 -33 12 0 12 17 0 45 -7 17 -9 15 -9 -12z"/>
<path d="M1302 768 l3 -83 72 -3 72 -3 3 -77 3 -77 77 -3 77 -3 6 33 c4 18 5
56 3 83 l-3 50 -82 3 -83 3 0 79 0 80 -75 0 -76 0 3 -82z"/>
<path d="M523 755 c0 -27 2 -38 4 -22 2 15 2 37 0 50 -2 12 -4 0 -4 -28z"/>
<path d="M1483 364 c-8 -8 -13 -40 -13 -78 0 -55 3 -65 18 -64 9 1 76 -3 149
-7 l132 -7 6 24 c3 13 5 49 3 79 l-3 54 -130 0 c-71 0 -134 3 -140 6 -5 4 -16
1 -22 -7z m27 -24 c0 -5 -4 -10 -10 -10 -5 0 -10 5 -10 10 0 6 5 10 10 10 6 0
10 -4 10 -10z m97 -12 c-3 -8 -6 -5 -6 6 -1 11 2 17 5 13 3 -3 4 -12 1 -19z
m-120 -80 c-2 -13 -4 -3 -4 22 0 25 2 35 4 23 2 -13 2 -33 0 -45z m20 0 c-2
-13 -4 -3 -4 22 0 25 2 35 4 23 2 -13 2 -33 0 -45z"/>
<path d="M5670 288 l0 -73 82 3 83 3 0 52 c0 29 -4 55 -10 60 -6 4 -4 11 5 17
10 7 -12 10 -72 10 l-88 0 0 -72z"/>
<path d="M5955 340 c3 -5 8 -10 11 -10 2 0 4 5 4 10 0 6 -5 10 -11 10 -5 0 -7
-4 -4 -10z"/>
<path d="M5943 270 c0 -25 2 -35 4 -22 2 12 2 32 0 45 -2 12 -4 2 -4 -23z"/>
<path d="M1787 193 c-9 -8 -9 -106 -1 -127 5 -13 22 -16 80 -16 l74 0 0 75 0
75 -73 0 c-41 0 -77 -3 -80 -7z"/>
<path d="M1950 20 c0 -18 6 -20 76 -20 66 0 75 2 72 17 -3 15 -16 19 -76 21
-67 3 -72 1 -72 -18z"/>
</g>
</svg>
